<svg width="66" height="66" viewBox="0 0 66 66" fill="none" xmlns="http://www.w3.org/2000/svg">
<rect width="66" height="66" rx="18" fill="white"/>
<path d="M23 7H43C46.1826 7 49.2348 8.26428 51.4853 10.5147C53.7357 12.7652 55 15.8174 55 19C55 22.1826 53.7357 25.2348 51.4853 27.4853C49.2348 29.7357 46.1826 31 43 31C39.44 31 36.26 29.46 34.06 27H31.94C29.74 29.46 26.56 31 23 31C19.8174 31 16.7652 29.7357 14.5147 27.4853C12.2643 25.2348 11 22.1826 11 19C11 15.8174 12.2643 12.7652 14.5147 10.5147C16.7652 8.26428 19.8174 7 23 7ZM21 13V17H17V21H21V25H25V21H29V17H25V13H21ZM40 19C39.2044 19 38.4413 19.3161 37.8787 19.8787C37.3161 20.4413 37 21.2044 37 22C37 22.7956 37.3161 23.5587 37.8787 24.1213C38.4413 24.6839 39.2044 25 40 25C40.7956 25 41.5587 24.6839 42.1213 24.1213C42.6839 23.5587 43 22.7956 43 22C43 21.2044 42.6839 20.4413 42.1213 19.8787C41.5587 19.3161 40.7956 19 40 19ZM46 13C45.2044 13 44.4413 13.3161 43.8787 13.8787C43.3161 14.4413 43 15.2044 43 16C43 16.7956 43.3161 17.5587 43.8787 18.1213C44.4413 18.6839 45.2044 19 46 19C46.7956 19 47.5587 18.6839 48.1213 18.1213C48.6839 17.5587 49 16.7956 49 16C49 15.2044 48.6839 14.4413 48.1213 13.8787C47.5587 13.3161 46.7956 13 46 13Z" fill="black"/>
<path d="M21.8134 38.7979V42.7422C21.6585 42.929 21.4192 43.1318 21.0956 43.3506C20.7721 43.5648 20.3551 43.7493 19.8446 43.9043C19.3342 44.0592 18.7167 44.1367 17.9921 44.1367C17.3495 44.1367 16.7639 44.0319 16.2353 43.8223C15.7066 43.6081 15.2509 43.2959 14.8681 42.8857C14.4898 42.4756 14.1982 41.9743 13.9931 41.3818C13.788 40.7848 13.6855 40.1035 13.6855 39.3379V38.7158C13.6855 37.9502 13.7835 37.2689 13.9794 36.6719C14.1799 36.0749 14.4648 35.5713 14.8339 35.1611C15.203 34.751 15.6428 34.4388 16.1532 34.2246C16.6637 34.0104 17.231 33.9033 17.8554 33.9033C18.7213 33.9033 19.4322 34.0446 19.9882 34.3271C20.5442 34.6051 20.968 34.9925 21.2597 35.4893C21.5559 35.9814 21.7382 36.5465 21.8066 37.1846H19.8173C19.7672 36.8473 19.6715 36.5534 19.5302 36.3027C19.3889 36.0521 19.1861 35.8561 18.9218 35.7148C18.662 35.5736 18.3248 35.5029 17.9101 35.5029C17.5683 35.5029 17.2629 35.5736 16.9941 35.7148C16.7297 35.8516 16.5064 36.0544 16.3241 36.3232C16.1418 36.5921 16.0029 36.9248 15.9071 37.3213C15.8114 37.7178 15.7636 38.1781 15.7636 38.7021V39.3379C15.7636 39.8574 15.8137 40.3177 15.914 40.7188C16.0142 41.1152 16.1624 41.4502 16.3583 41.7236C16.5588 41.9925 16.8049 42.1953 17.0966 42.332C17.3883 42.4688 17.7278 42.5371 18.1152 42.5371C18.4387 42.5371 18.7076 42.5098 18.9218 42.4551C19.1405 42.4004 19.316 42.3343 19.4482 42.2568C19.5849 42.1748 19.6897 42.0973 19.7626 42.0244V40.2607H17.8896V38.7979H21.8134ZM27.7946 35.749L25.0875 44H22.9069L26.6051 34.0469H27.9928L27.7946 35.749ZM30.0436 44L27.3297 35.749L27.111 34.0469H28.5123L32.2311 44H30.0436ZM29.9205 40.2949V41.9014H24.6637V40.2949H29.9205ZM34.3705 34.0469H36.1068L38.6634 41.3545L41.2201 34.0469H42.9564L39.3607 44H37.9662L34.3705 34.0469ZM33.4339 34.0469H35.1634L35.4779 41.1699V44H33.4339V34.0469ZM42.1634 34.0469H43.8998V44H41.849V41.1699L42.1634 34.0469ZM52.6563 42.4004V44H47.3585V42.4004H52.6563ZM48.0284 34.0469V44H45.9776V34.0469H48.0284ZM51.9659 38.1006V39.6592H47.3585V38.1006H51.9659ZM52.6495 34.0469V35.6533H47.3585V34.0469H52.6495ZM24.0862 51.6318H21.5296L21.5159 50.2236H23.6624C24.0406 50.2236 24.3505 50.1758 24.5921 50.0801C24.8336 49.9798 25.0136 49.8363 25.1321 49.6494C25.2552 49.458 25.3167 49.2256 25.3167 48.9521C25.3167 48.6423 25.2574 48.3916 25.1389 48.2002C25.025 48.0088 24.845 47.8698 24.5989 47.7832C24.3574 47.6966 24.0452 47.6533 23.6624 47.6533H22.2405V56H20.1897V46.0469H23.6624C24.2412 46.0469 24.7584 46.1016 25.2141 46.2109C25.6744 46.3203 26.0641 46.4867 26.3831 46.71C26.7021 46.9333 26.9459 47.2158 27.1145 47.5576C27.2832 47.8949 27.3675 48.2959 27.3675 48.7607C27.3675 49.1709 27.274 49.5492 27.0872 49.8955C26.9049 50.2419 26.6155 50.5244 26.219 50.7432C25.8271 50.9619 25.3144 51.0827 24.6809 51.1055L24.0862 51.6318ZM23.9973 56H20.969L21.7688 54.4004H23.9973C24.3574 54.4004 24.6513 54.3434 24.8792 54.2295C25.107 54.111 25.2757 53.9515 25.385 53.751C25.4944 53.5505 25.5491 53.3203 25.5491 53.0605C25.5491 52.7689 25.499 52.516 25.3987 52.3018C25.303 52.0876 25.1481 51.9235 24.9339 51.8096C24.7197 51.6911 24.4371 51.6318 24.0862 51.6318H22.1106L22.1243 50.2236H24.5852L25.0569 50.7773C25.663 50.7682 26.1507 50.8753 26.5198 51.0986C26.8935 51.3174 27.1647 51.6022 27.3333 51.9531C27.5065 52.304 27.593 52.68 27.593 53.0811C27.593 53.7191 27.454 54.2568 27.1761 54.6943C26.8981 55.1273 26.4902 55.4531 25.9524 55.6719C25.4192 55.8906 24.7675 56 23.9973 56ZM34.9072 46.0469H36.9512V52.623C36.9512 53.3887 36.7871 54.0335 36.459 54.5576C36.1354 55.0817 35.6865 55.4759 35.1123 55.7402C34.5426 56.0046 33.8864 56.1367 33.1436 56.1367C32.4007 56.1367 31.7399 56.0046 31.1611 55.7402C30.5869 55.4759 30.1357 55.0817 29.8076 54.5576C29.484 54.0335 29.3223 53.3887 29.3223 52.623V46.0469H31.373V52.623C31.373 53.0697 31.4437 53.4342 31.585 53.7168C31.7262 53.9993 31.929 54.2067 32.1934 54.3389C32.4622 54.471 32.779 54.5371 33.1436 54.5371C33.5173 54.5371 33.834 54.471 34.0938 54.3389C34.3581 54.2067 34.5586 53.9993 34.6953 53.7168C34.8366 53.4342 34.9072 53.0697 34.9072 52.623V46.0469ZM40.2868 46.0469L42.365 50.5859L44.4431 46.0469H46.6784L43.404 52.377V56H41.3259V52.377L38.0446 46.0469H40.2868Z" fill="black"/>
</svg>
