<svg width="20" height="20" viewBox="0 0 20 20" fill="none" xmlns="http://www.w3.org/2000/svg">
<path fill-rule="evenodd" clip-rule="evenodd" d="M1.535 9H5.761C5.826 6.744 6.184 4.69 6.746 3.131C6.912 2.674 7.098 2.249 7.307 1.868C5.74745 2.35289 4.36664 3.28922 3.3391 4.55866C2.31155 5.8281 1.68439 7.37365 1.535 9ZM9.75 0C4.365 0 0 4.365 0 9.75C0 15.135 4.365 19.5 9.75 19.5C15.135 19.5 19.5 15.135 19.5 9.75C19.5 4.365 15.135 0 9.75 0ZM9.751 1.5C9.605 1.5 9.368 1.58 9.056 1.944C8.747 2.306 8.436 2.874 8.158 3.641C7.664 5.009 7.328 6.884 7.262 9H12.24C12.174 6.884 11.838 5.009 11.344 3.64C11.067 2.874 10.754 2.306 10.446 1.944C10.134 1.58 9.896 1.5 9.751 1.5ZM13.741 9C13.675 6.744 13.317 4.69 12.755 3.131C12.6006 2.69624 12.4131 2.274 12.194 1.868C13.7536 2.35289 15.1344 3.28922 16.1619 4.55866C17.1894 5.8281 17.8176 7.37365 17.967 9H13.741ZM12.24 10.5H7.261C7.326 12.616 7.663 14.491 8.157 15.86C8.434 16.626 8.747 17.194 9.055 17.556C9.367 17.92 9.605 18 9.75 18C9.896 18 10.133 17.92 10.445 17.556C10.754 17.194 11.065 16.626 11.343 15.859C11.837 14.491 12.174 12.616 12.24 10.5ZM12.193 17.632C12.4118 17.226 12.599 16.8037 12.753 16.369C13.316 14.81 13.673 12.756 13.739 10.5H17.966C17.8166 12.1263 17.1884 13.6719 16.1609 14.9413C15.1334 16.2108 13.7526 17.1471 12.193 17.632ZM7.307 17.632C7.08825 17.226 6.90103 16.8037 6.747 16.369C6.184 14.81 5.827 12.756 5.761 10.5H1.535C1.68439 12.1263 2.31255 13.6719 3.3401 14.9413C4.36764 16.2108 5.74845 17.1471 7.308 17.632" fill="white"/>
</svg>
